<svg width="30" height="48" viewBox="0 0 30 48" fill="none" xmlns="http://www.w3.org/2000/svg">
<path d="M6.24745 34.66V35.776H2.70745V38.236H5.46745V39.352H2.70745V43H1.33945V34.66H6.24745ZM13.5752 39.532C13.5752 39.78 13.5592 40.004 13.5272 40.204H8.47523C8.51523 40.732 8.71123 41.156 9.06323 41.476C9.41523 41.796 9.84723 41.956 10.3592 41.956C11.0952 41.956 11.6152 41.648 11.9192 41.032H13.3952C13.1952 41.64 12.8312 42.14 12.3032 42.532C11.7832 42.916 11.1352 43.108 10.3592 43.108C9.72723 43.108 9.15923 42.968 8.65523 42.688C8.15923 42.4 7.76723 42 7.47923 41.488C7.19923 40.968 7.05923 40.368 7.05923 39.688C7.05923 39.008 7.19523 38.412 7.46723 37.9C7.74723 37.38 8.13523 36.98 8.63123 36.7C9.13523 36.42 9.71123 36.28 10.3592 36.28C10.9832 36.28 11.5392 36.416 12.0272 36.688C12.5152 36.96 12.8952 37.344 13.1672 37.84C13.4392 38.328 13.5752 38.892 13.5752 39.532ZM12.1472 39.1C12.1392 38.596 11.9592 38.192 11.6072 37.888C11.2552 37.584 10.8192 37.432 10.2992 37.432C9.82723 37.432 9.42323 37.584 9.08723 37.888C8.75123 38.184 8.55123 38.588 8.48723 39.1H12.1472ZM20.9815 39.532C20.9815 39.78 20.9655 40.004 20.9335 40.204H15.8815C15.9215 40.732 16.1175 41.156 16.4695 41.476C16.8215 41.796 17.2535 41.956 17.7655 41.956C18.5015 41.956 19.0215 41.648 19.3255 41.032H20.8015C20.6015 41.64 20.2375 42.14 19.7095 42.532C19.1895 42.916 18.5415 43.108 17.7655 43.108C17.1335 43.108 16.5655 42.968 16.0615 42.688C15.5655 42.4 15.1735 42 14.8855 41.488C14.6055 40.968 14.4655 40.368 14.4655 39.688C14.4655 39.008 14.6015 38.412 14.8735 37.9C15.1535 37.38 15.5415 36.98 16.0375 36.7C16.5415 36.42 17.1175 36.28 17.7655 36.28C18.3895 36.28 18.9455 36.416 19.4335 36.688C19.9215 36.96 20.3015 37.344 20.5735 37.84C20.8455 38.328 20.9815 38.892 20.9815 39.532ZM19.5535 39.1C19.5455 38.596 19.3655 38.192 19.0135 37.888C18.6615 37.584 18.2255 37.432 17.7055 37.432C17.2335 37.432 16.8295 37.584 16.4935 37.888C16.1575 38.184 15.9575 38.588 15.8935 39.1H19.5535ZM21.8717 39.664C21.8717 39 22.0077 38.412 22.2797 37.9C22.5597 37.388 22.9357 36.992 23.4077 36.712C23.8877 36.424 24.4197 36.28 25.0037 36.28C25.4357 36.28 25.8597 36.376 26.2757 36.568C26.6997 36.752 27.0357 37 27.2837 37.312V34.12H28.6637V43H27.2837V42.004C27.0597 42.324 26.7477 42.588 26.3477 42.796C25.9557 43.004 25.5037 43.108 24.9917 43.108C24.4157 43.108 23.8877 42.964 23.4077 42.676C22.9357 42.38 22.5597 41.972 22.2797 41.452C22.0077 40.924 21.8717 40.328 21.8717 39.664ZM27.2837 39.688C27.2837 39.232 27.1877 38.836 26.9957 38.5C26.8117 38.164 26.5677 37.908 26.2637 37.732C25.9597 37.556 25.6317 37.468 25.2797 37.468C24.9277 37.468 24.5997 37.556 24.2957 37.732C23.9917 37.9 23.7437 38.152 23.5517 38.488C23.3677 38.816 23.2757 39.208 23.2757 39.664C23.2757 40.12 23.3677 40.52 23.5517 40.864C23.7437 41.208 23.9917 41.472 24.2957 41.656C24.6077 41.832 24.9357 41.92 25.2797 41.92C25.6317 41.92 25.9597 41.832 26.2637 41.656C26.5677 41.48 26.8117 41.224 26.9957 40.888C27.1877 40.544 27.2837 40.144 27.2837 39.688Z" fill="#525252"/>
<path d="M7.10117 0H1.8716C1.39047 0 1 0.390475 1 0.871595V6.10117C1 6.58229 1.39047 6.97276 1.8716 6.97276H7.10117C7.58229 6.97276 7.97276 6.58229 7.97276 6.10117V0.871595C7.97276 0.390475 7.58229 0 7.10117 0ZM7.10117 6.10117H1.8716V0.871595H7.10117V6.10117Z" fill="#525252"/>
<path d="M7.10117 10.4591H1.8716C1.39047 10.4591 1 10.8496 1 11.3307V16.5603C1 17.0414 1.39047 17.4319 1.8716 17.4319H7.10117C7.58229 17.4319 7.97276 17.0414 7.97276 16.5603V11.3307C7.97276 10.8496 7.58229 10.4591 7.10117 10.4591ZM7.10117 16.5603H1.8716V11.3307H7.10117V16.5603Z" fill="#525252"/>
<path d="M7.10117 20.9183H1.8716C1.39047 20.9183 1 21.3088 1 21.7899V27.0195C1 27.5006 1.39047 27.891 1.8716 27.891H7.10117C7.58229 27.891 7.97276 27.5006 7.97276 27.0195V21.7899C7.97276 21.3088 7.58229 20.9183 7.10117 20.9183ZM7.10117 27.0195H1.8716V21.7899H7.10117V27.0195Z" fill="#525252"/>
<path d="M28.891 1.19844H11.4591V2.69844H28.891V1.19844Z" fill="#525252"/>
<path d="M23.0001 4.57593H11.4592V6.07593H23.0001V4.57593Z" fill="#525252"/>
<path d="M28.891 11.3307H11.4591V12.8307H28.891V11.3307Z" fill="#525252"/>
<path d="M22.9991 14.8171H11.4591V16.3171H22.9991V14.8171Z" fill="#525252"/>
<path d="M28.891 21.7899H11.4591V23.2899H28.891V21.7899Z" fill="#525252"/>
<path d="M22.9991 25.2763H11.4591V26.7763H22.9991V25.2763Z" fill="#525252"/>
</svg>
